<?xml version="1.0" encoding="utf-8"?>
<!-- Generator: Adobe Illustrator 22.0.1, SVG Export Plug-In . SVG Version: 6.00 Build 0)  -->
<svg version="1.1" id="Layer_1" xmlns="http://www.w3.org/2000/svg" xmlns:xlink="http://www.w3.org/1999/xlink" x="0px" y="0px"
	 viewBox="0 0 121.8 122.5" style="enable-background:new 0 0 121.8 122.5;" xml:space="preserve">
<style type="text/css">
	.st0{fill:#3BC1CD;}
	.st1{fill:#D2D2D4;}
	.st2{fill:#41C2CC;}
</style>
<g>
	<path class="st0" d="M60.9,117.4C31.6,117.2,5.1,92.1,5.1,61.3c0-30.9,26.5-56,55.8-56.2V0C28.2,0.2,0,27.6,0,61.3
		c0,33.7,28.2,61.1,60.9,61.3V117.4z"/>
	<path class="st1" d="M60.9,5.1c31,0.2,55.8,25.3,55.8,56.2c0,30.9-24.8,56-55.8,56.2v5.1c34.5-0.2,60.9-27.6,60.9-61.3
		c0-33.7-26.4-61.1-60.9-61.3V5.1z"/>
</g>
<path class="st2" d="M87.1,84.9H34.7c0-1.3,0,0,0.1-3.9c0-1.3,0.3-2.6,0.5-4.1c0.2-1.4,0.6-2.7,1-4c0.4-1.3,0.9-2.5,1.6-3.6
	c0.6-1.1,1.4-2.1,2.3-3c0.9-0.9,2-1.5,3.2-2c1.3-0.5,2.7-0.8,4.2-0.7c0.2,0,0.7,0.3,1.6,0.8c0.8,0.5,1.7,1.1,2.8,1.8
	c1,0.7,2.4,1.3,4,1.8c3.2,1.1,6.7,1.1,9.9,0c1.7-0.5,3-1.1,4-1.8c1-0.7,2-1.3,2.8-1.8c0.8-0.5,1.3-0.8,1.6-0.8
	c1.4,0,2.8,0.2,4.2,0.7c1.2,0.5,2.3,1.1,3.2,2c0.9,0.9,1.7,1.9,2.3,3c0.7,1.2,1.2,2.4,1.6,3.6c0.4,1.3,0.7,2.7,1,4
	c0.2,1.3,0.4,2.7,0.5,4.1C87.1,82.3,87.1,86.2,87.1,84.9z M71,41.5c2.8,2.8,4.2,6.2,4.2,10.1c0,3.9-1.4,7.3-4.2,10.1
	c-2.8,2.8-6.2,4.2-10.1,4.2s-7.3-1.4-10.1-4.2c-2.8-2.8-4.2-6.2-4.2-10.1s1.4-7.3,4.2-10.1c2.8-2.8,6.2-4.2,10.1-4.2
	S68.2,38.7,71,41.5z"/>
</svg>
