<?xml version="1.0" encoding="utf-8"?>
<!-- Generator: Adobe Illustrator 22.0.1, SVG Export Plug-In . SVG Version: 6.00 Build 0)  -->
<svg version="1.1" id="Layer_1" xmlns="http://www.w3.org/2000/svg" xmlns:xlink="http://www.w3.org/1999/xlink" x="0px" y="0px"
	 viewBox="0 0 121.8 122.5" style="enable-background:new 0 0 121.8 122.5;" xml:space="preserve">
<style type="text/css">
	.st0{fill:#3BC1CD;}
	.st1{fill:#D2D2D4;}
	.st2{fill:#59595C;}
	.st3{fill:#FFFFFF;}
	.st4{fill:#41C1CC;}
	.st5{fill:#75CDDD;}
</style>
<g>
	<g>
		<path class="st0" d="M60.9,117.4C31.6,117.2,5.1,92.1,5.1,61.3c0-30.9,26.5-56,55.8-56.2V0C28.2,0.2,0,27.6,0,61.3
			c0,33.7,28.2,61.1,60.9,61.3V117.4z"/>
		<path class="st1" d="M60.9,5.1c31,0.2,55.8,25.3,55.8,56.2c0,30.9-24.8,56-55.8,56.2v5.1c34.5-0.2,60.9-27.6,60.9-61.3
			c0-33.7-26.4-61.1-60.9-61.3V5.1z"/>
	</g>
	<g>
		<rect x="75.6" y="56.4" class="st2" width="2.2" height="21.2"/>
		<rect x="44" y="56.5" class="st2" width="2.2" height="21.2"/>
		<rect x="44" y="56.5" class="st2" width="2.2" height="2.2"/>
		<path class="st2" d="M36.5,77.7h48.8c0.9,0,1.6,0.7,1.6,1.6v11.6c0,0.9-0.7,1.6-1.6,1.6H36.5c-0.9,0-1.6-0.7-1.6-1.6V79.3
			C34.9,78.4,35.6,77.7,36.5,77.7z"/>
		<rect x="39.8" y="81" class="st3" width="2.6" height="8.1"/>
		<rect x="46" y="81" class="st3" width="2.6" height="8.1"/>
		<rect x="52.1" y="81" class="st3" width="2.6" height="8.1"/>
		<circle class="st4" cx="80.1" cy="86.9" r="2.2"/>
		<circle class="st5" cx="72.2" cy="86.9" r="2.2"/>
		<path class="st4" d="M37.2,32.4l3,3.6c11.4-13.7,29.9-13.7,41.4,0l3-3.6C71.6,16.8,50.3,16.8,37.2,32.4z"/>
		<path class="st4" d="M43.8,40.2l3,3.6c7.8-9.4,20.5-9.4,28.2,0l3-3.6C68.6,28.9,53.2,28.9,43.8,40.2z"/>
		<path class="st4" d="M50.4,48l3,3.6c3.2-4.2,9.2-4.9,13.3-1.7c0.6,0.5,1.2,1.1,1.7,1.7l3-3.6c-4.5-5.8-12.8-6.9-18.7-2.5
			C51.9,46.3,51.1,47.1,50.4,48z"/>
		<rect x="75.6" y="56.5" class="st2" width="2.2" height="2.2"/>
		<path class="st2" d="M44,50.4h2.2c0.3,0,0.6,0.3,0.6,0.6v4.9c0,0.3-0.3,0.6-0.6,0.6H44c-0.3,0-0.6-0.3-0.6-0.6V51
			C43.4,50.7,43.7,50.4,44,50.4z"/>
		<path class="st2" d="M75.6,50.4h2.2c0.3,0,0.6,0.3,0.6,0.6v4.9c0,0.3-0.3,0.6-0.6,0.6h-2.2c-0.3,0-0.6-0.3-0.6-0.6V51
			C75,50.7,75.3,50.4,75.6,50.4z"/>
		<circle class="st4" cx="60.9" cy="57.8" r="4.7"/>
	</g>
</g>
</svg>
