<?xml version="1.0" encoding="utf-8"?>
<!-- Generator: Adobe Illustrator 22.0.1, SVG Export Plug-In . SVG Version: 6.00 Build 0)  -->
<svg version="1.1" id="Layer_1" xmlns="http://www.w3.org/2000/svg" xmlns:xlink="http://www.w3.org/1999/xlink" x="0px" y="0px"
	 viewBox="0 0 121.8 122.5" style="enable-background:new 0 0 121.8 122.5;" xml:space="preserve">
<style type="text/css">
	.st0{fill:#3BC1CD;}
	.st1{fill:#D2D2D4;}
	.st2{fill:#D7272C;}
	.st3{fill:#59595C;}
	.st4{fill:#75CDDD;}
	.st5{fill:#41C1CC;}
</style>
<g>
	<path class="st0" d="M60.9,117.4C31.6,117.2,5.1,92.1,5.1,61.3c0-30.9,26.5-56,55.8-56.2V0C28.2,0.2,0,27.6,0,61.3
		c0,33.7,28.2,61.1,60.9,61.3V117.4z"/>
	<path class="st1" d="M60.9,5.1c31,0.2,55.8,25.3,55.8,56.2c0,30.9-24.8,56-55.8,56.2v5.1c34.5-0.2,60.9-27.6,60.9-61.3
		c0-33.7-26.4-61.1-60.9-61.3V5.1z"/>
</g>
<g>
	<rect x="54.4" y="48.1" class="st2" width="13.8" height="9.2"/>
	<path class="st3" d="M76.8,68.2v27.4c0,2.6-2.1,4.7-4.7,4.7H49.7c-2.6,0-4.7-2.1-4.7-4.7c0,0,0,0,0,0V68.2c0-0.8,0.6-1.4,1.4-1.4
		H50v20.3c0,3.7,3,6.7,6.7,6.7h8.5c3.7,0,6.7-3,6.7-6.7l0,0V66.8h3.5C76.1,66.8,76.7,67.4,76.8,68.2C76.8,68.2,76.8,68.2,76.8,68.2z
		 M51.5,87.1v-52c0-2.9,2.3-5.2,5.2-5.2h8.5c2.8,0,5.2,2.3,5.2,5.2v52c0,2.8-2.3,5.2-5.2,5.2h-8.5C53.8,92.3,51.5,90,51.5,87.1z
		 M57.6,83.4c0-0.4-0.3-0.7-0.7-0.7h-1.4c-0.4,0-0.7,0.3-0.7,0.7v0.7c0,0.4,0.3,0.7,0.7,0.7h1.4c0.4,0,0.7-0.3,0.7-0.7V83.4z
		 M57.6,79c0-0.4-0.3-0.7-0.7-0.7h-1.4c-0.4,0-0.7,0.3-0.7,0.7v0.7c0,0.4,0.3,0.7,0.7,0.7l0,0h1.4c0.4,0,0.7-0.3,0.7-0.7
		c0,0,0,0,0,0V79z M57.6,74.6c0-0.4-0.3-0.7-0.7-0.7c0,0,0,0,0,0h-1.4c-0.4,0-0.7,0.3-0.7,0.7l0,0v0.7c0,0.4,0.3,0.7,0.7,0.7h1.4
		c0.4,0,0.7-0.3,0.7-0.7V74.6z M57.6,70.3c0-0.4-0.3-0.7-0.7-0.7h-1.4c-0.4,0-0.7,0.3-0.7,0.7l0,0V71c0,0.4,0.3,0.7,0.7,0.7l0,0h1.4
		c0.4,0,0.7-0.3,0.7-0.7V70.3z M60.3,51.2h1.4c0.4,0,0.7-0.3,0.7-0.7l0,0v-0.7c0-0.4-0.3-0.7-0.7-0.7l0,0h-1.3
		c-0.4,0-0.7,0.3-0.7,0.7l0,0v0.7C59.6,50.9,60,51.2,60.3,51.2L60.3,51.2L60.3,51.2z M57.6,49.8c0-0.4-0.3-0.7-0.7-0.7h-1.4
		c-0.4,0-0.7,0.3-0.7,0.7v0.7c0,0.4,0.3,0.7,0.7,0.7h1.4c0.4,0,0.7-0.3,0.7-0.7l0,0V49.8z M62.5,83.4c0-0.4-0.3-0.7-0.7-0.7h-1.4
		c-0.4,0-0.7,0.3-0.7,0.7v0.7c0,0.4,0.3,0.7,0.7,0.7h1.4c0.4,0,0.7-0.3,0.7-0.7V83.4z M62.5,79c0-0.4-0.3-0.7-0.7-0.7h-1.4
		c-0.4,0-0.7,0.3-0.7,0.7v0.7c0,0.4,0.3,0.7,0.7,0.7c0,0,0,0,0,0h1.4c0.4,0,0.7-0.3,0.7-0.7c0,0,0,0,0,0V79z M62.5,74.6
		c0-0.4-0.3-0.7-0.7-0.7c0,0,0,0,0,0h-1.4c-0.4,0-0.7,0.3-0.7,0.7c0,0,0,0,0,0v0.7c0,0.4,0.3,0.7,0.7,0.7h1.4c0.4,0,0.7-0.3,0.7-0.7
		V74.6z M62.5,70.2c0-0.4-0.3-0.7-0.7-0.7h-1.4c-0.4,0-0.7,0.3-0.7,0.7c0,0,0,0,0,0V71c0,0.4,0.3,0.7,0.7,0.7c0,0,0,0,0,0h1.4
		c0.4,0,0.7-0.3,0.7-0.7c0,0,0,0,0,0V70.2z M67.1,83.4c0-0.4-0.3-0.7-0.7-0.7l0,0H65c-0.4,0-0.7,0.3-0.7,0.7v0.7
		c0,0.4,0.3,0.7,0.7,0.7h1.4c0.4,0,0.7-0.3,0.7-0.7l0,0V83.4z M67.1,78.9c0-0.4-0.3-0.7-0.7-0.7H65c-0.4,0-0.7,0.3-0.7,0.7v0.7
		c0,0.4,0.3,0.7,0.7,0.7h1.4c0.4,0,0.7-0.3,0.7-0.7c0,0,0,0,0,0V78.9z M67.1,74.6c0-0.4-0.3-0.7-0.7-0.7l0,0H65
		c-0.4,0-0.7,0.3-0.7,0.7v0.7c0,0.4,0.3,0.7,0.7,0.7h1.4c0.4,0,0.7-0.3,0.7-0.7c0,0,0,0,0,0V74.6z M67.1,70.2c0-0.4-0.3-0.7-0.7-0.7
		l0,0H65c-0.4,0-0.7,0.3-0.7,0.7V71c0,0.4,0.3,0.7,0.7,0.7h1.4c0.4,0,0.7-0.3,0.7-0.7l0,0V70.2z M67.1,49.7c0-0.4-0.3-0.7-0.7-0.7
		l0,0H65c-0.4,0-0.7,0.3-0.7,0.7v0.7c0,0.4,0.3,0.7,0.7,0.7h1.4c0.4,0,0.7-0.3,0.7-0.7l0,0V49.7z M60.4,55.6h1.4
		c0.4,0,0.7-0.3,0.7-0.7l0,0v-0.7c0-0.4-0.3-0.7-0.7-0.7l0,0h-1.4c-0.4,0-0.7,0.3-0.7,0.7l0,0v0.7C59.6,55.3,60,55.6,60.4,55.6
		L60.4,55.6z M57.7,54.2c0-0.4-0.4-0.7-0.7-0.7c0,0,0,0,0,0h-1.4c-0.4,0-0.7,0.3-0.7,0.7v0.7c0,0.4,0.3,0.7,0.7,0.7h1.4
		c0.4,0,0.7-0.3,0.7-0.7l0,0L57.7,54.2z M67.2,54.2c0-0.4-0.3-0.7-0.7-0.7l0,0H65c-0.4,0-0.7,0.3-0.7,0.7v0.7c0,0.4,0.3,0.7,0.7,0.7
		h1.4c0.4,0,0.7-0.3,0.7-0.7l0,0L67.2,54.2z M54.4,44.4h13.1v-9.1H54.4V44.4z"/>
	<rect x="54.4" y="35.4" class="st4" width="13.1" height="9"/>
	<polygon class="st5" points="58.7,35.3 61.1,44.4 67.5,44.4 67.5,35.4 	"/>
	<path class="st3" d="M55.1,22.2h0.3c0.7,0,1.3,0.6,1.3,1.3v10.1c0,0.7-0.6,1.3-1.3,1.3h-0.3c-0.7,0-1.3-0.6-1.3-1.3V23.5
		C53.8,22.8,54.4,22.2,55.1,22.2z"/>
</g>
</svg>
