<?xml version="1.0" encoding="utf-8"?>
<!-- Generator: Adobe Illustrator 22.0.1, SVG Export Plug-In . SVG Version: 6.00 Build 0)  -->
<svg version="1.1" id="Layer_1" xmlns="http://www.w3.org/2000/svg" xmlns:xlink="http://www.w3.org/1999/xlink" x="0px" y="0px"
	 viewBox="0 0 121.8 122.5" style="enable-background:new 0 0 121.8 122.5;" xml:space="preserve">
<style type="text/css">
	.st0{fill:#3BC1CD;}
	.st1{fill:#D2D2D4;}
	.st2{fill:#59595C;}
	.st3{fill:#75CDDD;}
	.st4{fill:#41C1CC;}
</style>
<g>
	<path class="st0" d="M60.9,117.4C31.6,117.2,5.1,92.1,5.1,61.3c0-30.9,26.5-56,55.8-56.2V0C28.2,0.2,0,27.6,0,61.3
		c0,33.7,28.2,61.1,60.9,61.3V117.4z"/>
	<path class="st1" d="M60.9,5.1c31,0.2,55.8,25.3,55.8,56.2c0,30.9-24.8,56-55.8,56.2v5.1c34.5-0.2,60.9-27.6,60.9-61.3
		c0-33.7-26.4-61.1-60.9-61.3V5.1z"/>
</g>
<g>
	<path class="st2" d="M64.6,78.3h26.2c0.3,0,0.6-0.3,0.6-0.6V41.2c0-0.3-0.3-0.6-0.6-0.6H31c-0.3,0-0.6,0.3-0.6,0.6v36.5
		c0,0.3,0.3,0.6,0.6,0.6h26.1"/>
	<polygon class="st2" points="70.5,78 71.8,80.2 74.1,80.8 74.8,81.9 47.9,81.9 48.6,80.8 51,80.2 52.2,78 70.5,78 	"/>
	<rect x="33.8" y="43.6" class="st3" width="54.5" height="31.9"/>
	<polygon class="st4" points="54.3,43.6 66,75.5 88.3,75.5 88.3,43.6 	"/>
</g>
</svg>
